<svg width="256" height="256" viewBox="0 0 256 256" fill="none" xmlns="http://www.w3.org/2000/svg">
<rect width="256" height="256" rx="48" fill="url(#paint0_linear_13_9)"/>
<path fill-rule="evenodd" clip-rule="evenodd" d="M42 38C39.7909 38 38 39.7909 38 42V161.5C38 163.709 39.7909 165.5 42 165.5H142.062V214C142.062 216.209 143.853 218 146.062 218H183.062C185.272 218 187.062 216.209 187.062 214V165.5H214C216.209 165.5 218 163.709 218 161.5V42C218 39.7909 216.209 38 214 38H42ZM187.062 165.5V132C187.062 129.791 185.272 128 183.062 128H146.062C143.853 128 142.062 129.791 142.062 132V165.5H187.062Z" fill="#676565"/>
<defs>
<linearGradient id="paint0_linear_13_9" x1="128" y1="0" x2="128" y2="256" gradientUnits="userSpaceOnUse">
<stop stop-color="white"/>
<stop offset="1" stop-color="#EDEDED"/>
</linearGradient>
</defs>
</svg>
